<?xml version="1.0" encoding="UTF-8"?>
<svg id="Ebene_1" data-name="Ebene 1" xmlns="http://www.w3.org/2000/svg" viewBox="0 0 984.97 344.34">
  <defs>
    <style>
      .cls-1 {
        letter-spacing: .06em;
      }

      .cls-1, .cls-2, .cls-3, .cls-4, .cls-5, .cls-6 {
        fill: #1d1d1b;
        font-family: TimesNewRomanPSMT, 'Times New Roman';
      }

      .cls-1, .cls-3, .cls-5, .cls-6 {
        font-size: 124px;
      }

      .cls-7 {
        letter-spacing: .03em;
      }

      .cls-8 {
        fill: #fddc06;
      }

      .cls-9, .cls-10 {
        fill: #cf1719;
      }

      .cls-11 {
        letter-spacing: .02em;
      }

      .cls-12 {
        letter-spacing: .07em;
      }

      .cls-2 {
        font-size: 232px;
        letter-spacing: 0em;
      }

      .cls-3 {
        letter-spacing: -.04em;
      }

      .cls-10 {
        font-family: Oswald-Medium, 'Oswald Medium';
        font-size: 60px;
        font-weight: 500;
      }

      .cls-13 {
        letter-spacing: -.01em;
      }

      .cls-14 {
        letter-spacing: -.01em;
      }

      .cls-4 {
        font-size: 266.34px;
        letter-spacing: -.02em;
      }

      .cls-15 {
        letter-spacing: 0em;
      }

      .cls-16 {
        letter-spacing: .08em;
      }

      .cls-6 {
        letter-spacing: .04em;
      }

      .cls-17 {
        letter-spacing: -.24em;
      }
    </style>
  </defs>
  <text class="cls-3" transform="translate(257.46 219.99) scale(1.02 1)"><tspan x="0" y="0">a</tspan></text>
  <text class="cls-2" transform="translate(308.54 263.99) scale(1.13 1)"><tspan x="0" y="0">g</tspan></text>
  <text class="cls-6" transform="translate(441.46 219.99) scale(1.02 1)"><tspan x="0" y="0">e</tspan></text>
  <text class="cls-1" transform="translate(502.53 219.99) scale(1.03 1)"><tspan x="0" y="0">m</tspan></text>
  <text class="cls-5" transform="translate(609.41 219.99) scale(1.02 1)"><tspan class="cls-12" x="0" y="0">an</tspan><tspan class="cls-16" x="134.15" y="0">n</tspan></text>
  <ellipse class="cls-8" cx="371.85" cy="193.14" rx="17.65" ry="23.69" transform="translate(-18.12 39.84) rotate(-5.99)"/>
  <polygon class="cls-9" points="0 256.31 264 256.31 264 289.98 7.52 289.98 0 256.31"/>
  <polygon class="cls-9" points="976.48 256.31 924.9 256.31 924.9 289.98 968.96 289.98 976.48 256.31"/>
  <text class="cls-10" transform="translate(441.9 292.87)"><tspan class="cls-15" x="0" y="0">SC</tspan><tspan class="cls-13" x="64.98" y="0">H</tspan><tspan class="cls-15" x="103.2" y="0">WEI</tspan><tspan class="cls-14" x="198.72" y="0">S</tspan><tspan class="cls-7" x="227.4" y="0">S</tspan><tspan class="cls-17" x="258.48" y="0">-</tspan><tspan class="cls-14" x="262.8" y="0"> </tspan><tspan class="cls-15" x="274.62" y="0">SE</tspan><tspan class="cls-11" x="334.32" y="0">R</tspan><tspan class="cls-14" x="367.86" y="0">V</tspan><tspan class="cls-15" x="400.44" y="0">IC</tspan><tspan class="cls-7" x="450.17" y="0">E</tspan></text>
  <text class="cls-4" transform="translate(23.92 221.34) scale(1.11 1)"><tspan x="0" y="0">W</tspan></text>
</svg>