<?xml version="1.0" encoding="UTF-8"?>
<svg id="Ebene_1" data-name="Ebene 1" xmlns="http://www.w3.org/2000/svg" viewBox="0 0 969.5 269.1">
  <defs>
    <style>
      .cls-1 {
        fill: #fddc06;
      }

      .cls-2 {
        fill: #cf1719;
      }

      .cls-3 {
        fill: #1d1d1b;
      }
    </style>
  </defs>
  <g>
    <path class="cls-3" d="m281.5,167c-5.8,4.4-9.4,6.9-10.9,7.6-2.2,1-4.6,1.5-7.1,1.5-3.9,0-7.1-1.3-9.7-3.9-2.5-2.6-3.8-6.1-3.8-10.4s.6-5,1.9-7c1.7-2.7,4.6-5.3,8.8-7.8,4.2-2.4,11.1-5.4,20.8-8.8v-2.2c0-5.5-.9-9.3-2.7-11.4s-4.4-3.1-7.8-3.1-4.7.7-6.2,2.1c-1.6,1.4-2.3,2.9-2.3,4.7v3.5c.1,1.9-.4,3.3-1.3,4.3-1,1-2.2,1.5-3.8,1.5s-2.8-.5-3.7-1.6c-1-1-1.5-2.5-1.5-4.3,0-3.5,1.8-6.7,5.4-9.6,3.6-2.9,8.7-4.4,15.3-4.4s9.1.8,12.4,2.5c2.4,1.3,4.2,3.2,5.4,5.9.7,1.7,1.1,5.3,1.1,10.7v18.8c0,5.3.1,8.5.3,9.7.2,1.2.5,2,1,2.4.5.4,1,.6,1.6.6s1.2-.1,1.7-.4c.9-.5,2.5-2,5-4.4v3.4c-4.6,6.1-9,9.1-13.2,9.1s-3.6-.7-4.8-2.1c-1.2-1.4-1.8-3.7-1.9-7Zm0-3.9v-21.1c-6.2,2.4-10.2,4.1-12,5.1-3.3,1.8-5.6,3.6-7,5.6-1.4,1.9-2.1,4.1-2.1,6.4s.9,5.3,2.7,7.2c1.8,1.9,3.8,2.9,6.1,2.9s7.2-2,12.4-6.1Z"/>
    <path class="cls-3" d="m336.1,181.2c-7.2-3.1-12.7-7.4-16.5-13s-5.8-11.7-5.8-18.4c0-10.3,4.4-19.1,13.1-26.5,8.7-7.4,19.9-11.1,33.6-11.1s20.9,2.4,29.1,7.2h24.8c3.7,0,5.8,0,6.4.3.6.2,1,.5,1.3,1,.5.7.8,1.9.8,3.6s-.2,3.3-.6,4.1c-.3.4-.7.7-1.3.9-.6.2-2.8.3-6.5.3h-15.2c4.8,5.4,7.2,12.4,7.2,20.8s-4.2,17.9-12.5,24.8c-8.4,6.9-19.6,10.3-33.7,10.3s-11.7-.8-17.8-2.3c-3.8,2.9-6.3,5.4-7.6,7.5-1.3,2.2-2,4-2,5.5s.7,2.5,2.1,3.7c1.4,1.2,4.2,2.1,8.3,2.6,2.4.3,8.4.6,17.9.8,17.6.4,29,.9,34.2,1.6,7.9,1,14.3,3.6,19,7.8,4.7,4.2,7.1,9.4,7.1,15.6s-4.5,16.5-13.6,24c-13.3,11-30.7,16.5-52.1,16.5s-30.4-3.3-41.7-9.9c-6.4-3.8-9.6-7.7-9.6-11.8s.5-3.6,1.4-5.4c1.4-2.8,4.4-6.7,9-11.7.6-.7,4.9-4.8,13.1-12.2-4.4-2.3-7.6-4.4-9.4-6.3-1.8-1.8-2.8-3.9-2.8-6.3s1.2-5.7,3.6-9.3c2.4-3.5,8-8.6,16.8-15.1Zm-1.3,37.8c-4,3.9-7,7.4-9.1,10.8-2,3.3-3.1,6.4-3.1,9.2s2.5,6.8,7.4,9.5c8.5,4.7,20.9,7,37,7s26.7-2.4,34-7.2c7.3-4.8,10.9-9.9,10.9-15.3s-2.2-6.7-6.5-8.4c-4.4-1.7-13.2-2.6-26.4-2.9-19.2-.5-34-1.3-44.3-2.6Zm23.6-101.4c-6.3,0-11.6,2.2-15.9,6.7-4.3,4.5-6.4,11.3-6.4,20.5s2.9,21.2,8.7,27.8c4.4,5,10.1,7.5,16.9,7.5s11.8-2.2,16-6.5c4.2-4.3,6.3-11.1,6.3-20.3s-2.9-21.4-8.8-28.2c-4.4-5-9.9-7.5-16.8-7.5Z"/>
    <path class="cls-3" d="m442.9,140.4c0,8.2,2,14.7,6.1,19.4,4.1,4.7,9,7,14.5,7s6.9-1,9.7-3c2.7-2,5-5.4,6.9-10.3l1.9,1.2c-.9,5.5-3.4,10.6-7.5,15.1-4.2,4.5-9.4,6.8-15.6,6.8s-12.6-2.6-17.4-7.8c-4.8-5.2-7.3-12.2-7.3-20.9s2.5-16.9,7.4-22.2c5-5.3,11.2-8,18.7-8s11.5,2,15.6,6.1c4.1,4.1,6.1,9.6,6.1,16.4h-39.1Zm0-3.5h26.2c-.2-3.6-.6-6.1-1.3-7.5-1-2.3-2.6-4-4.6-5.3-2-1.3-4.2-1.9-6.4-1.9-3.4,0-6.5,1.3-9.2,3.9-2.7,2.6-4.3,6.2-4.7,10.9Z"/>
    <path class="cls-3" d="m511.5,129.7c4.2-4,6.6-6.4,7.4-7,1.9-1.5,3.9-2.7,6-3.6,2.2-.8,4.3-1.3,6.4-1.3,3.6,0,6.7,1,9.2,3,2.6,2,4.3,4.9,5.2,8.8,4.3-4.8,7.9-8,10.9-9.5,3-1.5,6-2.3,9.1-2.3s5.7.8,8.1,2.3c2.3,1.5,4.2,4,5.6,7.4.9,2.3,1.4,6,1.4,11v23.9c0,3.5.3,5.9.8,7.1.4.9,1.2,1.6,2.3,2.3,1.1.6,3,.9,5.5.9v2.2h-28.2v-2.2h1.2c2.5,0,4.4-.5,5.7-1.4,1-.6,1.6-1.7,2.1-3.1.2-.7.2-2.6.2-5.9v-23.9c0-4.5-.6-7.7-1.7-9.6-1.6-2.6-4.2-3.9-7.8-3.9s-4.4.5-6.6,1.6c-2.2,1.1-4.9,3.1-8.1,6v.7c-.1,0,0,2.6,0,2.6v26.5c0,3.8.2,6.2.7,7.1.4.9,1.3,1.7,2.5,2.3,1.2.6,3.3.9,6.2.9v2.2h-28.9v-2.2c3.2,0,5.3-.4,6.5-1.1,1.2-.7,2-1.8,2.5-3.3.2-.7.3-2.7.3-6v-23.9c0-4.5-.7-7.8-2.1-9.7-1.8-2.6-4.4-3.9-7.7-3.9s-4.5.6-6.7,1.8c-3.5,1.8-6.1,3.8-8,6v29.7c0,3.6.3,6,.8,7.1.5,1.1,1.3,1.9,2.3,2.5,1,.5,3.1.8,6.2.8v2.2h-28.2v-2.2c2.6,0,4.4-.3,5.5-.8s1.8-1.4,2.4-2.6c.5-1.2.8-3.5.8-6.9v-21.2c0-6.1-.2-10-.6-11.8-.3-1.3-.7-2.2-1.4-2.8-.6-.5-1.5-.8-2.6-.8s-2.6.3-4.2.9l-.9-2.2,17.2-6.8h2.7v11.8Z"/>
    <path class="cls-3" d="m633.4,167c-5.8,4.4-9.4,6.9-10.9,7.6-2.2,1-4.6,1.5-7.1,1.5-3.9,0-7.1-1.3-9.7-3.9-2.5-2.6-3.8-6.1-3.8-10.4s.6-5,1.9-7c1.7-2.7,4.6-5.3,8.8-7.8s11.1-5.4,20.8-8.8v-2.2c0-5.5-.9-9.3-2.7-11.4s-4.4-3.1-7.8-3.1-4.7.7-6.2,2.1c-1.6,1.4-2.3,2.9-2.3,4.7v3.5c.1,1.9-.4,3.3-1.3,4.3-1,1-2.2,1.5-3.8,1.5s-2.8-.5-3.7-1.6c-1-1-1.5-2.5-1.5-4.3,0-3.5,1.8-6.7,5.4-9.6,3.6-2.9,8.7-4.4,15.3-4.4s9.1.8,12.4,2.5c2.4,1.3,4.2,3.2,5.4,5.9.7,1.7,1.1,5.3,1.1,10.7v18.8c0,5.3.1,8.5.3,9.7.2,1.2.5,2,1,2.4.5.4,1,.6,1.6.6s1.2-.1,1.7-.4c.9-.5,2.5-2,5-4.4v3.4c-4.6,6.1-9,9.1-13.2,9.1s-3.6-.7-4.8-2.1c-1.2-1.4-1.8-3.7-1.9-7Zm0-3.9v-21.1c-6.2,2.4-10.2,4.1-12,5.1-3.3,1.8-5.6,3.6-7,5.6-1.4,1.9-2.1,4.1-2.1,6.4s.9,5.3,2.7,7.2c1.8,1.9,3.8,2.9,6.1,2.9s7.2-2,12.4-6.1Z"/>
    <path class="cls-3" d="m682.7,129.6c6.6-7.8,12.9-11.7,19-11.7s5.7.8,8,2.3,4,4,5.3,7.5c.9,2.4,1.4,6.1,1.4,11.1v23.7c0,3.5.3,5.9.9,7.1.5,1,1.2,1.8,2.2,2.4,1,.6,2.9.8,5.6.8v2.2h-28v-2.2h1.2c2.6,0,4.5-.4,5.5-1.2,1.1-.8,1.8-1.9,2.2-3.5.2-.6.2-2.5.2-5.7v-22.7c0-5-.7-8.7-2-11-1.3-2.3-3.6-3.4-6.8-3.4-4.9,0-9.8,2.6-14.6,7.9v29.2c0,3.8.2,6.1.7,7,.6,1.2,1.4,2,2.4,2.6,1,.5,3.1.8,6.1.8v2.2h-28v-2.2h1.2c2.9,0,4.8-.7,5.8-2.1,1-1.4,1.5-4.2,1.5-8.2v-20.6c0-6.7-.2-10.7-.5-12.2-.3-1.5-.8-2.4-1.4-3-.6-.5-1.5-.8-2.6-.8s-2.5.3-4.1.9l-.9-2.2,17-6.8h2.7v11.7Z"/>
    <path class="cls-3" d="m754.7,129.6c6.6-7.8,12.9-11.7,19-11.7s5.7.8,8,2.3,4,4,5.3,7.5c.9,2.4,1.4,6.1,1.4,11.1v23.7c0,3.5.3,5.9.9,7.1.5,1,1.2,1.8,2.2,2.4,1,.6,2.9.8,5.6.8v2.2h-28v-2.2h1.2c2.6,0,4.5-.4,5.5-1.2,1.1-.8,1.8-1.9,2.2-3.5.2-.6.2-2.5.2-5.7v-22.7c0-5-.7-8.7-2-11-1.3-2.3-3.6-3.4-6.8-3.4-4.9,0-9.8,2.6-14.6,7.9v29.2c0,3.8.2,6.1.7,7,.6,1.2,1.4,2,2.4,2.6,1,.5,3.1.8,6.1.8v2.2h-28v-2.2h1.2c2.9,0,4.8-.7,5.8-2.1,1-1.4,1.5-4.2,1.5-8.2v-20.6c0-6.7-.2-10.7-.5-12.2-.3-1.5-.8-2.4-1.4-3-.6-.5-1.5-.8-2.6-.8s-2.5.3-4.1.9l-.9-2.2,17-6.8h2.7v11.7Z"/>
  </g>
  <ellipse class="cls-1" cx="359.9" cy="148.1" rx="17.7" ry="23.7" transform="translate(-13.5 38.3) rotate(-6)"/>
  <polygon class="cls-2" points="0 211.3 264 211.3 264 245 7.5 245 0 211.3"/>
  <polygon class="cls-2" points="969.5 211.3 917.9 211.3 917.9 245 962 245 969.5 211.3"/>
  <g>
    <path class="cls-2" d="m439.3,238.1l7.7-1.5c.2,5.6,1.6,9.2,5.6,9.2s4.1-1.9,4.1-4.4c0-4.1-2.2-6.3-5.4-9l-6.2-5.2c-3.5-2.9-5.7-6.2-5.7-11.4,0-7.4,4.9-11.6,12.7-11.6,9.2,0,11.8,5.9,12.3,12.8l-7.7,1.3c-.2-4.4-.9-7.7-4.8-7.7s-4.1,1.9-4.1,4.4,1.4,4.9,4,7.1l6.1,5.2c4,3.3,7.3,7.4,7.3,13.6,0,6.8-5,11.6-12.3,11.6s-13.2-5-13.6-14.3Z"/>
    <path class="cls-2" d="m470,236.8v-16.8c0-9.6,3.2-15.7,14-15.7,10.1,0,13.3,5.3,13.3,13.5v3.9h-8.6v-4.1c0-3.9,0-7.1-4.6-7.1-4.6,0-5,3.4-5,7.7v20.4c0,5.1,1.1,7.5,5,7.5s4.6-3.3,4.6-7.5v-4.2h8.6v3.8c0,8.3-2.9,14.3-13.3,14.3-10.8,0-14-6.5-14-15.7Z"/>
    <path class="cls-2" d="m504,204.8h8.9v19.6s10,0,10,0v-19.6h9s0,47,0,47h-9v-21.2s-10,0-10,0v21.2h-8.9s0-47,0-47Z"/>
    <path class="cls-2" d="m538.8,204.8h7.5s4.1,30.5,4.1,30.5l5.1-30.4h6.1s5.3,30.4,5.3,30.4l4-30.5h7.4s-6.9,47-6.9,47h-7.3s-5.5-31.5-5.5-31.5l-5.4,31.5h-7.5s-6.9-47-6.9-47Z"/>
    <path class="cls-2" d="m584.2,205.8h20.6v6h-11.7s0,13.5,0,13.5h9.2v6h-9.2s0,15.6,0,15.6h11.8v5.9h-20.8s0-47,0-47Z"/>
    <path class="cls-2" d="m614.8,204.8h8.9s0,47,0,47h-8.9s0-47,0-47Z"/>
    <path class="cls-2" d="m630.3,238.1l7.7-1.5c.2,5.6,1.6,9.2,5.6,9.2s4.1-1.9,4.1-4.4c0-4.1-2.2-6.3-5.4-9l-6.2-5.2c-3.5-2.9-5.7-6.2-5.7-11.4,0-7.4,4.9-11.6,12.7-11.6s11.8,5.9,12.3,12.8l-7.7,1.3c-.2-4.4-.9-7.7-4.8-7.7s-4.1,1.9-4.1,4.4,1.4,4.9,4,7.1l6.1,5.2c4,3.3,7.3,7.4,7.3,13.6,0,6.8-5,11.6-12.3,11.6s-13.2-5-13.6-14.3Z"/>
    <path class="cls-2" d="m659.4,238.1l7.7-1.5c.2,5.6,1.6,9.2,5.6,9.2s4.1-1.9,4.1-4.4c0-4.1-2.2-6.3-5.4-9l-6.2-5.2c-3.5-2.9-5.7-6.2-5.7-11.4,0-7.4,4.9-11.6,12.7-11.6,9.2,0,11.8,5.9,12.3,12.8l-7.7,1.3c-.2-4.4-.9-7.7-4.8-7.7s-4.1,1.9-4.1,4.4,1.4,4.9,4,7.1l6.1,5.2c4,3.3,7.3,7.4,7.3,13.6s-5,11.6-12.3,11.6-13.2-5-13.6-14.3Z"/>
    <path class="cls-2" d="m694,230.1h14.6v5.4h-14.6v-5.4Z"/>
    <path class="cls-2" d="m717.1,238.1l7.7-1.5c.2,5.6,1.6,9.2,5.6,9.2s4.1-1.9,4.1-4.4c0-4.1-2.2-6.3-5.4-9l-6.2-5.2c-3.5-2.9-5.7-6.2-5.7-11.4,0-7.4,4.9-11.6,12.7-11.6s11.8,5.9,12.3,12.8l-7.7,1.3c-.2-4.4-.9-7.7-4.8-7.7s-4.1,1.9-4.1,4.4c0,3.2,1.4,4.9,4,7.1l6.1,5.2c4,3.3,7.3,7.4,7.3,13.6,0,6.8-5,11.6-12.3,11.6s-13.2-5-13.6-14.3Z"/>
    <path class="cls-2" d="m748.6,204.8h20.6v6h-11.7s0,13.5,0,13.5h9.2v6h-9.2s0,15.6,0,15.6h11.8v5.9h-20.8s0-47,0-47Z"/>
    <path class="cls-2" d="m774.9,204.8h11.8c9.8,0,15.4,3,15.4,12.5,0,5.6-1.5,9.6-6.1,11.4l6.9,23.2h-9s-5.9-21.5-5.9-21.5h-4.3s0,21.5,0,21.5h-8.9s0-47,0-47Zm11.8,20.1c5.2,0,7-2.1,7-7.2,0-4.8-1.4-7.1-6.6-7.1h-3.3s0,14.3,0,14.3h2.9Z"/>
    <path class="cls-2" d="m805.5,205.1l7.9-.2,7.2,33.1,5.4-33.4,8.1-.2-8.9,47.2-8.8.2-10.9-46.8Z"/>
    <path class="cls-2" d="m839.9,204.8h8.9s0,47,0,47h-8.9s0-47,0-47Z"/>
    <path class="cls-2" d="m854.9,236.8v-16.8c0-9.6,3.2-15.7,14-15.7s13.3,5.3,13.3,13.5v3.9h-8.6v-4.1c0-3.9,0-7.1-4.6-7.1s-5,3.4-5,7.7v20.4c0,5.1,1.1,7.5,5,7.5s4.6-3.3,4.6-7.5v-4.2h8.6v3.8c0,8.3-2.9,14.3-13.3,14.3-10.8,0-14-6.5-14-15.7Z"/>
    <path class="cls-2" d="m886.8,204.8h20.6v6h-11.7s0,13.5,0,13.5h9.2v6h-9.2s0,15.6,0,15.6h11.8v5.9h-20.8s0-47,0-47Z"/>
  </g>
  <path class="cls-3" d="m288.6,0v4.8c-5.1,0-9.2.8-12.4,2.5-3.2,1.6-6.2,4.7-9.1,9.2-1.9,3-5,10.3-9.1,21.7l-54.6,142.1h-5.8l-44.6-112.8-44.3,112.8h-5.2L45.4,33.9c-4.3-10.9-7.1-17.4-8.2-19.4-1.9-3.3-4.5-5.7-7.9-7.3-3.3-1.6-7.8-2.4-13.5-2.4V0h72.5v4.8h-3.5c-5.1,0-9,1-11.7,3.1-2.7,2.1-4,4.6-4,7.5s2.1,10,6.4,20.9l38.5,99,32.5-84.1-5.8-14.8-4.6-11.8c-2-4.3-4.3-8.1-6.8-11.4-1.3-1.6-2.8-3-4.6-4.2-2.4-1.6-4.8-2.7-7.2-3.4-1.8-.5-4.7-.8-8.7-.8V0h76.2v4.8h-5.2c-5.4,0-9.3,1-11.8,3.1-2.5,2.1-3.8,4.9-3.8,8.5s2.2,12.1,6.5,23.1l37.5,95.8,37.2-97.1c4.2-10.7,6.4-18.2,6.4-22.4s-.7-3.9-2.1-5.6c-1.4-1.7-3.2-2.9-5.3-3.6-3.7-1.2-8.4-1.8-14.3-1.8V0h58.5Z"/>
</svg>
